HIERARCHY
ROOT SpineBase
{
  OFFSET 0.000000 0.000000 0.000000
  CHANNELS 6 Xposition Yposition Zposition Zrotation Xrotation Yrotation
  JOINT SpineMid
  {
    OFFSET 0.000000 28.901415 0.000000
    CHANNELS 3 Zrotation Xrotation Yrotation
    JOINT SpineShoulder
    {
      OFFSET -0.118898 21.515501 -0.667183
      CHANNELS 3 Zrotation Xrotation Yrotation
      JOINT Neck
      {
        OFFSET -0.084403 7.135487 -0.520353
        CHANNELS 3 Zrotation Xrotation Yrotation
        JOINT Head
        {
          OFFSET -2.512216 11.853294 0.850604
          CHANNELS 3 Zrotation Xrotation Yrotation
          End Site
          {
            OFFSET 0 0 0
          }
        }
      }
      JOINT ShoulderLeft
      {
        OFFSET -15.598928 -2.851463 7.595385
        CHANNELS 3 Zrotation Xrotation Yrotation
        JOINT ElbowLeft
        {
          OFFSET -5.072006 -24.833856 4.836289
          CHANNELS 3 Zrotation Xrotation Yrotation
          JOINT WristLeft
          {
            OFFSET -4.773450 -20.425850 -4.506825
            CHANNELS 3 Zrotation Xrotation Yrotation
            JOINT HandLeft
            {
              OFFSET -2.132400 -4.673240 -1.992930
              CHANNELS 3 Zrotation Xrotation Yrotation
              JOINT HandTipLeft
              {
                OFFSET -1.142196 -6.290339 -2.646875
                CHANNELS 3 Zrotation Xrotation Yrotation
                End Site
                {
                  OFFSET 0 0 0
                }
              }
              JOINT ThumbLeft
              {
                OFFSET 2.499463 0.212660 -3.237065
                CHANNELS 3 Zrotation Xrotation Yrotation
                End Site
                {
                  OFFSET 0 0 0
                }
              }
            }
          }
        }
      }
      JOINT ShoulderRight
      {
        OFFSET 14.129874 -1.466646 -7.320441
        CHANNELS 3 Zrotation Xrotation Yrotation
        JOINT ElbowRight
        {
          OFFSET 6.397898 -25.046919 -3.711320
          CHANNELS 3 Zrotation Xrotation Yrotation
          JOINT WristRight
          {
            OFFSET -0.506433 -20.846406 -4.982481
            CHANNELS 3 Zrotation Xrotation Yrotation
            JOINT HandRight
            {
              OFFSET -2.363645 -6.026303 -2.978877
              CHANNELS 3 Zrotation Xrotation Yrotation
              JOINT HandTipRight
              {
                OFFSET -0.733473 -6.042953 -2.404396
                CHANNELS 3 Zrotation Xrotation Yrotation
                End Site
                {
                  OFFSET 0 0 0
                }
              }
              JOINT ThumbRight
              {
                OFFSET -2.807668 0.581342 -1.592742
                CHANNELS 3 Zrotation Xrotation Yrotation
                End Site
                {
                  OFFSET 0 0 0
                }
              }
            }
          }
        }
      }
    }
  }
  JOINT HipLeft
  {
    OFFSET -5.745556 0.589737 -1.408977
    CHANNELS 3 Zrotation Xrotation Yrotation
    JOINT KneeLeft
    {
      OFFSET -5.758078 -28.425650 0.992797
      CHANNELS 3 Zrotation Xrotation Yrotation
      JOINT AnkleLeft
      {
        OFFSET -0.057352 -35.771815 1.600529
        CHANNELS 3 Zrotation Xrotation Yrotation
        JOINT FootLeft
        {
          OFFSET -2.736935 -6.196824 -8.030105
          CHANNELS 3 Zrotation Xrotation Yrotation
          End Site
          {
            OFFSET 0 0 0
          }
        }
      }
    }
  }
  JOINT HipRight
  {
    OFFSET 4.881394 1.046661 -5.164001
    CHANNELS 3 Zrotation Xrotation Yrotation
    JOINT KneeRight
    {
      OFFSET 4.879608 -28.328232 0.653947
      CHANNELS 3 Zrotation Xrotation Yrotation
      JOINT AnkleRight
      {
        OFFSET 2.521875 -40.241692 7.281225
        CHANNELS 3 Zrotation Xrotation Yrotation
        JOINT FootRight
        {
          OFFSET -1.829458 -7.953992 -4.966698
          CHANNELS 3 Zrotation Xrotation Yrotation
          End Site
          {
            OFFSET 0 0 0
          }
        }
      }
    }
  }
}
MOTION
Frames: 9
Frame Time: 0.033333
47.556765 75.477254 369.358640 -0.000000 0.000000 19.460820 -0.000000 0.000000 -19.460820 -0.000000 0.000000 0.000000 -0.000000 0.000000 0.000000 0.000000 0.000000 0.000000 -0.000000 0.000000 0.000000 -0.000000 0.000000 0.000000 -0.000000 0.000000 0.000000 -0.000000 0.000000 0.000000 0.000000 0.000000 0.000000 0.000000 0.000000 0.000000 -0.000000 0.000000 0.000000 -0.000000 0.000000 0.000000 -0.000000 0.000000 0.000000 -0.000000 0.000000 0.000000 0.000000 0.000000 0.000000 0.000000 0.000000 0.000000 -0.000000 0.000000 -19.460820 -0.000000 0.000000 0.000000 -0.000000 0.000000 0.000000 0.000000 0.000000 0.000000 -0.000000 0.000000 -19.460820 -0.000000 0.000000 0.000000 -0.000000 0.000000 0.000000 0.000000 0.000000 0.000000
47.438621 75.498051 369.260750 -0.102732 0.198001 19.322713 0.031429 -0.220840 -19.322475 -0.000000 0.000000 0.000000 -0.000000 0.000000 0.000000 0.000000 0.000000 0.000000 -0.000000 0.000000 0.000000 -0.000000 0.000000 0.000000 1.444441 -0.510742 -0.379433 -1.921544 -1.694726 0.995473 0.000000 0.000000 0.000000 0.000000 0.000000 0.000000 -0.000000 0.000000 0.000000 -0.352810 1.135068 0.060097 -0.076719 -3.362481 1.023202 1.485047 3.604785 -1.715414 0.000000 0.000000 0.000000 0.000000 0.000000 0.000000 0.031429 -0.220840 -19.322475 -0.000000 0.000000 0.000000 -4.400447 10.524201 1.275350 0.000000 0.000000 0.000000 0.031429 -0.220840 -19.322475 -0.000000 0.000000 0.000000 -4.445073 7.512661 1.274878 0.000000 0.000000 0.000000
47.297746 75.521413 369.161748 -0.215050 0.384946 19.174890 0.076686 -0.434221 -19.173877 -0.000000 0.000000 0.000000 -0.000000 0.000000 0.000000 0.000000 0.000000 0.000000 -0.000000 0.000000 0.000000 -0.895344 -0.218268 0.246512 3.500283 -0.606485 -0.993776 -3.350978 -3.116810 1.804546 0.000000 0.000000 0.000000 0.000000 0.000000 0.000000 -0.000000 0.000000 0.000000 -0.653519 2.076146 0.117075 -0.320411 -6.185625 1.953930 2.743057 6.456702 -3.206429 0.000000 0.000000 0.000000 0.000000 0.000000 0.000000 0.223879 -1.255999 -19.009901 -0.406866 0.729005 -0.159217 -7.400507 17.204257 2.505038 0.000000 0.000000 0.000000 0.076686 -0.434221 -19.173877 -0.000000 0.000000 0.000000 -8.283764 13.318071 2.820173 0.000000 0.000000 0.000000
47.134141 75.547338 369.061636 -0.336960 0.560847 19.017804 0.135822 -0.640032 -19.015396 -0.000000 0.000000 0.000000 -0.000000 0.000000 0.000000 0.000000 0.000000 0.000000 -0.078493 0.835044 -0.185502 -1.071101 -1.150571 0.493529 4.629346 -0.600059 -1.419918 -4.299539 -4.264783 2.422679 0.000000 0.000000 0.000000 0.000000 0.000000 0.000000 -0.000000 0.000000 0.000000 -0.901704 2.823418 0.168115 -0.737193 -8.469070 2.783869 3.697464 8.561879 -4.385068 0.000000 0.000000 0.000000 0.000000 0.000000 0.000000 0.387323 -1.776294 -18.787664 -0.604105 0.994690 -0.217185 -9.300807 21.246229 3.388003 0.000000 0.000000 0.000000 0.135822 -0.640032 -19.015396 1.005182 0.064678 0.185282 -12.403326 17.453799 4.168281 0.000000 0.000000 0.000000
46.947805 75.575828 368.960414 -0.468468 0.725716 18.851879 0.208874 -0.838146 -18.847385 -0.000000 0.000000 0.000000 -0.000000 0.000000 0.000000 0.000000 0.000000 0.000000 -0.214583 1.119493 -0.268751 -1.062715 -1.519556 0.618481 5.334816 -0.370309 -1.802699 -4.775657 -5.139296 2.847788 0.000000 0.000000 0.000000 0.000000 0.000000 0.000000 -0.824676 0.524879 0.260351 -0.259240 2.853799 -0.052228 -1.330311 -10.218490 3.511116 4.289142 9.939891 -5.190263 0.000000 0.000000 0.000000 0.000000 0.000000 0.000000 0.584351 -2.224280 -18.567830 0.040827 1.492746 -0.243912 -11.093580 23.145677 3.736367 0.000000 0.000000 0.000000 0.208874 -0.838146 -18.847385 1.366465 -0.021585 0.245968 -15.230220 20.263566 5.504977 0.000000 0.000000 0.000000
46.738739 75.606882 368.858080 -0.609581 0.879565 18.677508 0.295870 -1.028428 -18.670174 -0.000000 0.000000 0.000000 -0.000000 0.000000 0.000000 0.000000 0.000000 0.000000 -0.404849 1.406317 -0.361714 -0.871879 -1.878837 0.727655 5.610980 0.092377 -2.141509 -4.782865 -5.740402 3.080202 0.000000 0.000000 0.000000 0.000000 0.000000 0.000000 -1.111853 0.622225 0.330284 -0.109318 3.117433 -0.088338 -2.099527 -11.443393 4.140181 4.484462 10.615834 -5.594731 0.000000 0.000000 0.000000 0.000000 0.000000 0.000000 0.814330 -2.599629 -18.350676 0.143442 1.614358 -0.270640 -11.575412 23.899659 3.715448 0.000000 0.000000 0.000000 0.295870 -1.028428 -18.670174 1.739757 -0.162628 0.306717 -17.391627 21.850967 6.586331 0.000000 0.000000 0.000000
46.461754 75.639749 368.729391 -0.829485 1.071534 18.365335 0.099059 -0.353143 -18.372671 0.181040 -0.077031 -0.008128 -0.350168 -1.188105 -0.034750 0.000000 0.000000 0.000000 -0.247887 1.089777 -0.469795 -0.316471 -2.342231 0.830121 4.812702 0.909479 -2.221515 -3.526051 -6.093115 2.819965 0.000000 0.000000 0.000000 0.000000 0.000000 0.000000 -1.067152 -0.049266 0.405772 0.363482 3.365772 -0.172751 -3.878863 -12.218137 4.928181 4.211711 11.842342 -5.614897 0.000000 0.000000 0.000000 0.000000 0.000000 0.000000 1.049679 -2.984514 -18.001236 0.525439 1.702085 -0.287598 -9.800951 20.200592 2.268436 0.000000 0.000000 0.000000 0.449767 -1.278238 -18.352561 2.226851 -0.494449 0.380832 -19.192361 23.045357 7.461077 0.000000 0.000000 0.000000
46.186619 75.689780 368.603074 -1.003014 1.233537 18.156139 0.108232 -0.374814 -18.164706 0.205662 -0.102963 -0.012210 -0.762225 -1.276175 0.009311 0.000000 0.000000 0.000000 -0.406554 1.330830 -0.588510 0.364145 -2.728319 0.902885 3.868743 2.130460 -2.455336 -2.110504 -5.937229 2.534020 0.000000 0.000000 0.000000 0.000000 0.000000 0.000000 -1.366456 -0.090635 0.494569 1.226895 3.407329 -0.367401 -6.500200 -12.648947 5.854730 6.110165 11.086360 -6.616438 0.000000 0.000000 0.000000 0.000000 0.000000 0.000000 1.324920 -3.296112 -17.759861 0.737425 1.631631 -0.295170 -9.001126 18.564848 1.453559 0.000000 0.000000 0.000000 0.568936 -1.484547 -18.137970 2.540030 -0.767401 0.427469 -20.216109 20.190522 8.345368 0.000000 0.000000 0.000000
45.923486 75.742479 368.500193 -1.129072 1.348480 17.978975 0.102160 -0.358688 -17.988802 0.209835 -0.115316 -0.016959 -1.282928 -1.484173 0.029301 0.000000 0.000000 0.000000 -0.603794 1.515333 -0.702031 1.346575 -2.421564 0.784004 2.522291 1.846608 -1.965198 -1.263157 -2.951121 1.636689 0.000000 0.000000 0.000000 0.000000 0.000000 0.000000 -1.632348 -0.129368 0.577918 1.400881 3.031430 -0.380372 -6.918832 -12.061968 5.949822 3.965538 8.160905 -5.198455 0.000000 0.000000 0.000000 0.000000 0.000000 0.000000 1.658509 -3.481179 -17.563540 0.790093 1.504932 -0.285581 -8.339155 17.352261 0.756158 0.000000 0.000000 0.000000 0.658037 -1.630972 -17.956321 3.000585 -1.214709 0.496959 -18.883122 13.317508 8.021690 0.000000 0.000000 0.000000
